# xmcd CD database file
#
# Track frame offsets:
#	150
#	19484
#	31999
#	48760
#	65332
#	87341
#	97343
#	118722
#	129479
#	140898
#	156098
#	174003
#	186029
#	205047
#	219432
#
# Disc length: 3727 seconds
#
# Revision: 0
# Processed by: cddbd v1.5PL3 Copyright (c) Steve Scherf et al.
# Submitted via: CDex 1.51
#
DISCID=d10e8d0f
DTITLE=Starlings, TN - Between Hell And Baton Rouge
DYEAR=2004
DGENRE=Country
TTITLE0=Tramps Rouge
TTITLE1=Forbidden Fruit Makes A Sticky Jam
TTITLE2=My Sweet Love Ain't Around
TTITLE3=Corbitt Up The Mountain
TTITLE4=Lonesome Road Blues
TTITLE5=Skillet Good And Greasy
TTITLE6=Wayfarin' Stranger
TTITLE7=Ruben's Train (Live)
TTITLE8=The Cumberland (In A Van By The River)
TTITLE9=Last Five
TTITLE10=Weight Of Love
TTITLE11=Brush Arbor
TTITLE12=Every Day Is Sunday
TTITLE13=Revengin' The Death Of Charlie Sapp
TTITLE14=Burnin' Up The Blacktop and Lazyana
EXTD=YEAR: 2004
EXTT0=
EXTT1=
EXTT2=
EXTT3=
EXTT4=
EXTT5=
EXTT6=
EXTT7=
EXTT8=
EXTT9=
EXTT10=
EXTT11=
EXTT12=
EXTT13=
EXTT14=
PLAYORDER=
